<mxfile host="Electron" modified="2023-04-18T08:09:18.779Z" agent="Mozilla/5.0 (Macintosh; Intel Mac OS X 10_15_7) AppleWebKit/537.36 (KHTML, like Gecko) draw.io/21.1.2 Chrome/106.0.5249.199 Electron/21.4.3 Safari/537.36" etag="aU4R25phdHCwRvq1l3KY" compressed="false" version="21.1.2" type="device">
  <diagram name="Страница-1" id="Страница-1">
    <mxGraphModel dx="867" dy="555" grid="1" gridSize="10" guides="1" tooltips="1" connect="1" arrows="1" fold="1" page="1" pageScale="1" pageWidth="1000" pageHeight="1000" math="0" shadow="0">
      <root>
        <mxCell id="0" />
        <mxCell id="tpW0L4eKJtAbM24Pp-hq-4" value="Границы" parent="0" />
        <mxCell id="c_GgWeIZ1fy48l5YVFOS-8" style="edgeStyle=orthogonalEdgeStyle;rounded=0;orthogonalLoop=1;jettySize=auto;html=1;exitX=0.25;exitY=1;exitDx=0;exitDy=0;entryX=0.25;entryY=0;entryDx=0;entryDy=0;fontFamily=Arial;" parent="tpW0L4eKJtAbM24Pp-hq-4" source="c_GgWeIZ1fy48l5YVFOS-0" target="c_GgWeIZ1fy48l5YVFOS-1" edge="1">
          <mxGeometry relative="1" as="geometry" />
        </mxCell>
        <mxCell id="c_GgWeIZ1fy48l5YVFOS-0" value="Представление" style="rounded=0;whiteSpace=wrap;html=1;fontSize=22;strokeWidth=3;align=center;fontFamily=Arial;fontStyle=2" parent="tpW0L4eKJtAbM24Pp-hq-4" vertex="1">
          <mxGeometry x="410" y="40" width="180" height="120" as="geometry" />
        </mxCell>
        <mxCell id="c_GgWeIZ1fy48l5YVFOS-5" value="" style="edgeStyle=orthogonalEdgeStyle;rounded=0;orthogonalLoop=1;jettySize=auto;html=1;exitX=0.25;exitY=1;exitDx=0;exitDy=0;entryX=0.25;entryY=0;entryDx=0;entryDy=0;fontFamily=Arial;align=right;fontSize=18;" parent="tpW0L4eKJtAbM24Pp-hq-4" source="c_GgWeIZ1fy48l5YVFOS-1" target="c_GgWeIZ1fy48l5YVFOS-2" edge="1">
          <mxGeometry relative="1" as="geometry">
            <mxPoint as="offset" />
          </mxGeometry>
        </mxCell>
        <mxCell id="c_GgWeIZ1fy48l5YVFOS-12" value="&lt;font style=&quot;font-size: 18px;&quot;&gt;&lt;br&gt;&lt;/font&gt;" style="edgeStyle=orthogonalEdgeStyle;rounded=0;orthogonalLoop=1;jettySize=auto;html=1;exitX=0.75;exitY=0;exitDx=0;exitDy=0;entryX=0.75;entryY=1;entryDx=0;entryDy=0;align=left;fontSize=18;fontFamily=Arial;" parent="tpW0L4eKJtAbM24Pp-hq-4" source="c_GgWeIZ1fy48l5YVFOS-1" target="c_GgWeIZ1fy48l5YVFOS-0" edge="1">
          <mxGeometry relative="1" as="geometry">
            <mxPoint as="offset" />
          </mxGeometry>
        </mxCell>
        <mxCell id="c_GgWeIZ1fy48l5YVFOS-13" value="" style="edgeStyle=orthogonalEdgeStyle;rounded=0;orthogonalLoop=1;jettySize=auto;html=1;entryX=0;entryY=0.5;entryDx=0;entryDy=0;endArrow=classic;endFill=1;startArrow=none;startFill=0;" parent="tpW0L4eKJtAbM24Pp-hq-4" source="c_GgWeIZ1fy48l5YVFOS-1" target="c_GgWeIZ1fy48l5YVFOS-0" edge="1">
          <mxGeometry relative="1" as="geometry">
            <Array as="points">
              <mxPoint x="260" y="300" />
              <mxPoint x="260" y="100" />
            </Array>
          </mxGeometry>
        </mxCell>
        <mxCell id="c_GgWeIZ1fy48l5YVFOS-15" value="" style="edgeStyle=orthogonalEdgeStyle;rounded=0;orthogonalLoop=1;jettySize=auto;html=1;exitX=0.75;exitY=1;exitDx=0;exitDy=0;entryX=0.75;entryY=0;entryDx=0;entryDy=0;align=left;endArrow=none;endFill=0;startArrow=classic;startFill=1;fontSize=18;fontFamily=Arial;" parent="tpW0L4eKJtAbM24Pp-hq-4" source="c_GgWeIZ1fy48l5YVFOS-1" target="c_GgWeIZ1fy48l5YVFOS-2" edge="1">
          <mxGeometry relative="1" as="geometry">
            <mxPoint as="offset" />
          </mxGeometry>
        </mxCell>
        <mxCell id="c_GgWeIZ1fy48l5YVFOS-1" value="&lt;span style=&quot;font-size: 22px;&quot;&gt;Контроллер&lt;/span&gt;" style="rounded=0;whiteSpace=wrap;html=1;fontSize=22;strokeWidth=3;align=center;fontFamily=Arial;fontStyle=2" parent="tpW0L4eKJtAbM24Pp-hq-4" vertex="1">
          <mxGeometry x="410" y="239.99999999999994" width="180" height="120" as="geometry" />
        </mxCell>
        <mxCell id="c_GgWeIZ1fy48l5YVFOS-2" value="Модель" style="rounded=0;whiteSpace=wrap;html=1;fontSize=22;strokeWidth=3;align=center;fontFamily=Arial;fontStyle=2" parent="tpW0L4eKJtAbM24Pp-hq-4" vertex="1">
          <mxGeometry x="410" y="439.99999999999994" width="180" height="120" as="geometry" />
        </mxCell>
        <mxCell id="c_GgWeIZ1fy48l5YVFOS-21" value="&lt;meta charset=&quot;utf-8&quot;&gt;&lt;span style=&quot;color: rgb(0, 0, 0); font-family: Arial; font-size: 18px; font-style: normal; font-variant-ligatures: normal; font-variant-caps: normal; font-weight: 400; letter-spacing: normal; orphans: 2; text-align: center; text-indent: 0px; text-transform: none; widows: 2; word-spacing: 0px; -webkit-text-stroke-width: 0px; background-color: rgb(255, 255, 255); text-decoration-thickness: initial; text-decoration-style: initial; text-decoration-color: initial; float: none; display: inline !important;&quot;&gt;Инициализирует&lt;/span&gt;" style="text;whiteSpace=wrap;html=1;verticalAlign=bottom;" parent="tpW0L4eKJtAbM24Pp-hq-4" vertex="1">
          <mxGeometry x="260" y="50" width="170" height="50" as="geometry" />
        </mxCell>
        <mxCell id="IY5DsBYk2TtkLNvIpO2P-0" value="&lt;meta charset=&quot;utf-8&quot;&gt;&lt;span style=&quot;color: rgb(0, 0, 0); font-family: Arial; font-size: 18px; font-style: normal; font-variant-ligatures: normal; font-variant-caps: normal; font-weight: 400; letter-spacing: normal; orphans: 2; text-align: left; text-indent: 0px; text-transform: none; widows: 2; word-spacing: 0px; -webkit-text-stroke-width: 0px; background-color: rgb(255, 255, 255); text-decoration-thickness: initial; text-decoration-style: initial; text-decoration-color: initial; float: none; display: inline !important;&quot;&gt;Предоставляет новые&lt;/span&gt;&lt;br style=&quot;border-color: var(--border-color); color: rgb(0, 0, 0); font-family: Arial; font-size: 18px; font-style: normal; font-variant-ligatures: normal; font-variant-caps: normal; font-weight: 400; letter-spacing: normal; orphans: 2; text-align: left; text-indent: 0px; text-transform: none; widows: 2; word-spacing: 0px; -webkit-text-stroke-width: 0px; background-color: rgb(255, 255, 255); text-decoration-thickness: initial; text-decoration-style: initial; text-decoration-color: initial;&quot;&gt;&lt;span style=&quot;color: rgb(0, 0, 0); font-family: Arial; font-size: 18px; font-style: normal; font-variant-ligatures: normal; font-variant-caps: normal; font-weight: 400; letter-spacing: normal; orphans: 2; text-align: left; text-indent: 0px; text-transform: none; widows: 2; word-spacing: 0px; -webkit-text-stroke-width: 0px; background-color: rgb(255, 255, 255); text-decoration-thickness: initial; text-decoration-style: initial; text-decoration-color: initial; float: none; display: inline !important;&quot;&gt;данные для отображения&lt;/span&gt;" style="text;whiteSpace=wrap;html=1;verticalAlign=middle;" vertex="1" parent="tpW0L4eKJtAbM24Pp-hq-4">
          <mxGeometry x="550" y="160" width="200" height="80" as="geometry" />
        </mxCell>
        <mxCell id="IY5DsBYk2TtkLNvIpO2P-1" value="&lt;meta charset=&quot;utf-8&quot;&gt;&lt;span style=&quot;color: rgb(0, 0, 0); font-family: Arial; font-size: 18px; font-style: normal; font-variant-ligatures: normal; font-variant-caps: normal; font-weight: 400; letter-spacing: normal; orphans: 2; text-indent: 0px; text-transform: none; widows: 2; word-spacing: 0px; -webkit-text-stroke-width: 0px; background-color: rgb(255, 255, 255); text-decoration-thickness: initial; text-decoration-style: initial; text-decoration-color: initial; float: none; display: inline !important;&quot;&gt;Оповещает о&lt;/span&gt;&lt;br style=&quot;border-color: var(--border-color); color: rgb(0, 0, 0); font-family: Arial; font-size: 18px; font-style: normal; font-variant-ligatures: normal; font-variant-caps: normal; font-weight: 400; letter-spacing: normal; orphans: 2; text-indent: 0px; text-transform: none; widows: 2; word-spacing: 0px; -webkit-text-stroke-width: 0px; text-decoration-thickness: initial; text-decoration-style: initial; text-decoration-color: initial;&quot;&gt;&lt;span style=&quot;color: rgb(0, 0, 0); font-family: Arial; font-size: 18px; font-style: normal; font-variant-ligatures: normal; font-variant-caps: normal; font-weight: 400; letter-spacing: normal; orphans: 2; text-indent: 0px; text-transform: none; widows: 2; word-spacing: 0px; -webkit-text-stroke-width: 0px; background-color: rgb(255, 255, 255); text-decoration-thickness: initial; text-decoration-style: initial; text-decoration-color: initial; float: none; display: inline !important;&quot;&gt;действии пользователя&lt;/span&gt;" style="text;whiteSpace=wrap;html=1;align=right;verticalAlign=middle;" vertex="1" parent="tpW0L4eKJtAbM24Pp-hq-4">
          <mxGeometry x="260" y="160" width="190" height="80" as="geometry" />
        </mxCell>
        <mxCell id="IY5DsBYk2TtkLNvIpO2P-2" value="&lt;meta charset=&quot;utf-8&quot;&gt;&lt;span style=&quot;color: rgb(0, 0, 0); font-family: Arial; font-size: 18px; font-style: normal; font-variant-ligatures: normal; font-variant-caps: normal; font-weight: 400; letter-spacing: normal; orphans: 2; text-indent: 0px; text-transform: none; widows: 2; word-spacing: 0px; -webkit-text-stroke-width: 0px; background-color: rgb(255, 255, 255); text-decoration-thickness: initial; text-decoration-style: initial; text-decoration-color: initial; float: none; display: inline !important;&quot;&gt;Оповещает о&lt;/span&gt;&lt;br style=&quot;border-color: var(--border-color); color: rgb(0, 0, 0); font-family: Arial; font-size: 18px; font-style: normal; font-variant-ligatures: normal; font-variant-caps: normal; font-weight: 400; letter-spacing: normal; orphans: 2; text-indent: 0px; text-transform: none; widows: 2; word-spacing: 0px; -webkit-text-stroke-width: 0px; text-decoration-thickness: initial; text-decoration-style: initial; text-decoration-color: initial;&quot;&gt;&lt;span style=&quot;color: rgb(0, 0, 0); font-family: Arial; font-size: 18px; font-style: normal; font-variant-ligatures: normal; font-variant-caps: normal; font-weight: 400; letter-spacing: normal; orphans: 2; text-indent: 0px; text-transform: none; widows: 2; word-spacing: 0px; -webkit-text-stroke-width: 0px; background-color: rgb(255, 255, 255); text-decoration-thickness: initial; text-decoration-style: initial; text-decoration-color: initial; float: none; display: inline !important;&quot;&gt;изменении данных&lt;/span&gt;" style="text;whiteSpace=wrap;html=1;align=left;verticalAlign=middle;" vertex="1" parent="tpW0L4eKJtAbM24Pp-hq-4">
          <mxGeometry x="550" y="360" width="200" height="80" as="geometry" />
        </mxCell>
        <mxCell id="IY5DsBYk2TtkLNvIpO2P-3" value="&lt;meta charset=&quot;utf-8&quot;&gt;&lt;span style=&quot;color: rgb(0, 0, 0); font-family: Arial; font-size: 18px; font-style: normal; font-variant-ligatures: normal; font-variant-caps: normal; font-weight: 400; letter-spacing: normal; orphans: 2; text-indent: 0px; text-transform: none; widows: 2; word-spacing: 0px; -webkit-text-stroke-width: 0px; background-color: rgb(255, 255, 255); text-decoration-thickness: initial; text-decoration-style: initial; text-decoration-color: initial; float: none; display: inline !important;&quot;&gt;Обновляет данные&lt;/span&gt;" style="text;whiteSpace=wrap;html=1;align=right;verticalAlign=middle;" vertex="1" parent="tpW0L4eKJtAbM24Pp-hq-4">
          <mxGeometry x="250" y="360" width="200" height="80" as="geometry" />
        </mxCell>
        <mxCell id="tpW0L4eKJtAbM24Pp-hq-6" value="Рамка" parent="0" />
        <mxCell id="tpW0L4eKJtAbM24Pp-hq-5" value="Надписи" parent="0" />
        <mxCell id="tpW0L4eKJtAbM24Pp-hq-7" value="Связи" parent="0" />
        <mxCell id="tpW0L4eKJtAbM24Pp-hq-3" value="Сущности" parent="0" />
      </root>
    </mxGraphModel>
  </diagram>
</mxfile>
